<?xml version="1.0" encoding="utf-8"?>
<svg version="1.1" xmlns="http://www.w3.org/2000/svg" width="120px" height="120px" viewBox="0 0 120 120">
<path fill="currentColor" d="M103.95,57.62c-2.314-2.381-4.646-4.737-7.227-6.837c-1.945-1.587-3.875-3.195-5.799-4.808
c-0.312-0.263-0.254-0.803,0.107-1.03c1.967-1.24,3.742-2.707,5.342-4.392c2.977-3.131,4.479-6.848,4.51-11.734
c0.074-1.368-0.354-3.246-0.818-5.085c-0.338-1.343-0.926-2.671-1.65-3.857c-1.115-1.83-2.623-3.28-4.791-3.908
c-2.482-0.719-5.027-0.815-7.412,0.003c-4.83,1.66-8.738,4.51-10.641,9.522c-0.143,0.375-0.311,0.741-0.48,1.105
c-0.279,0.592-0.652,0.672-1.16,0.229c-1.361-1.191-2.645-2.483-4.086-3.569c-2.008-1.515-4.072-2.943-5.791-4.807
c-0.922-0.997-2.133-1.07-3.352-0.738c-0.777,0.211-1.396,0.688-1.98,1.297c-2.574,2.683-5.209,5.307-7.832,7.943
c-0.424,0.426-0.889,0.813-1.346,1.204c-0.309,0.263-0.859,0.08-0.955-0.307c-0.459-1.848-0.842-3.718-1.385-5.54
c-0.703-2.362-2.051-4.347-3.896-5.989c-0.992-0.884-2.129-1.45-3.414-1.834c-2.537-0.76-4.971-0.438-7.369,0.485
c-3.711,1.43-6.488,3.963-8.484,7.362c-2.076,3.532-3.197,7.364-3.277,11.457c-0.051,2.652,0.818,4.932,3.174,6.457
c0.498,0.321,1.021,0.697,1.342,1.176c1.041,1.556,2.521,2.563,4.07,3.518c1.906,1.174,1.908,1.255,0.508,2.845
c-1.068,1.213-2.223,2.324-3.586,3.208c-0.42,0.273-0.852,0.551-1.201,0.903c-2.338,2.354-4.684,4.704-6.971,7.106
c-1.402,1.472-1.557,3.008-0.432,4.632c0.854,1.232,1.803,2.419,2.844,3.495c2.447,2.53,4.979,4.978,7.463,7.471
c0.592,0.594,1.189,1.07,2.105,0.902c1.09-0.2,2.365-0.259,2.895-1.337c0.953-1.942,2.541-3.354,3.801-5.033
c2.246-2.989,5.281-3.808,8.814-3.345c1.053,0.139,1.838,0.68,2.412,1.608c2.184,3.527,2.418,7.086,0.57,10.87
c-1.334,2.731-3.014,5.222-4.811,7.632c-0.818,1.097-0.992,2.171-0.711,3.379c0.273,1.188,0.838,2.22,1.783,3.068
c3.9,3.499,7.395,7.401,10.84,11.33c2.738,3.123,2.686,1.923,5.477,0.534c0.348-0.172,0.604-0.525,0.896-0.801
c2.787-2.606,5.377-5.417,8.342-7.843c0.906-0.743,1.643-1.772,2.242-2.798c0.859-1.471,0.918-3.049-0.023-4.568
c-0.527-0.849-0.908-1.793-1.74-2.435c-0.906-0.701-1.355-1.721-1.807-2.736c-0.365-0.817-0.715-1.652-1.186-2.409
c-0.93-1.494-1.041-3.038-0.344-4.603c0.49-1.095,1.182-2.095,1.715-3.173c1.252-2.537,3.551-3.455,6.092-3.889
c1.73-0.293,3.516-0.073,4.799,1.219c1.842,1.853,3.52,3.849,3.98,6.598c0.232,1.378,0.697,2.724,1.139,4.057
c0.596,1.791,2.357,2.428,3.83,1.342c0.963-0.708,1.889-1.519,2.656-2.431c4.277-5.074,8.229-10.4,12.092-15.795
c0.346-0.484,0.676-1.019,0.861-1.579C105.253,60.678,105.358,59.067,103.95,57.62z M98.106,64.956
c-1.385,1.592-2.814,3.149-4.277,4.669c-1.338,1.388-2.467,2.899-3.346,4.621c-0.404,0.795-0.963,1.514-1.484,2.244
c-0.047,0.064-0.445,0.011-0.479-0.07c-0.264-0.645-0.467-1.313-0.709-1.968c-0.621-1.693-1.178-3.418-1.91-5.062
c-0.441-0.991-1.09-1.919-1.775-2.768c-1.408-1.735-3.252-2.611-5.525-2.586c-5.18,0.057-9.646,1.816-13.176,5.639
c-2.385,2.583-3.105,5.717-2.756,9.199c0.307,3.056,1.654,5.562,3.695,7.729c0.957,1.017,2.096,1.864,3.158,2.783
c0.24,0.206,0.439,0.449,0.195,0.729c-1.703,1.974-3.297,4.054-5.361,5.686c-0.141,0.11-0.414,0.189-0.551,0.124
c-0.143-0.069-0.252-0.32-0.273-0.505c-0.088-0.696-0.027-1.43-0.227-2.088c-0.195-0.649-0.543-1.314-1.008-1.796
c-0.281-0.292-0.924-0.372-1.379-0.326c-0.52,0.054-0.891,0.517-0.938,1.046c-0.102,1.1-0.117,2.206-0.172,3.31
c-0.031,0.599-0.062,1.198-0.133,1.793c-0.01,0.062-0.326,0.174-0.422,0.122c-0.67-0.362-1.029-0.958-1.059-1.706
c-0.037-0.903,0.014-1.81-0.02-2.714c-0.027-0.801-0.062-1.609-0.201-2.396c-0.146-0.843-0.82-1.168-1.807-0.983
c-0.9,0.169-1.025,0.05-0.941-0.812c0.129-1.399,0.254-2.799,0.357-4.199c0.027-0.396,0-0.807-0.066-1.199
c-0.191-1.095-1.35-1.57-2.307-0.958c-0.394,0.253-0.774,0.527-1.162,0.793c0.006,0.028,0.005,0.055,0.013,0.083
c-0.028,0.006-0.051,0.019-0.078,0.025c-0.255,0.93-0.491,1.863-0.789,2.779c-0.084,0.259-0.322,0.559-0.559,0.641
c-0.145,0.05-0.471-0.241-0.627-0.446c-0.242-0.316-0.471-0.727-0.117-1.08c0.664-0.666,1.079-1.621,2.092-1.894
c0.007-0.025,0.014-0.052,0.021-0.078c0.015-0.01,0.029-0.02,0.043-0.03c-0.15-0.744,0.357-1.287,0.675-1.853
c2.258-4.028,2.219-8.252,1.148-12.571c-1.211-4.892-6.939-8.877-12.391-7.507c-2.291,0.575-4.344,1.522-6.223,2.908
c-0.484,0.356-0.945,0.745-1.424,1.109c-0.07,0.053-0.246,0.093-0.258,0.073c-0.094-0.168-0.246-0.361-0.225-0.527
c0.09-0.693,0.271-1.377,0.336-2.071c0.023-0.267-0.15-0.565-0.277-0.83c-0.17-0.356-0.822-0.458-1.018-0.158
c-0.545,0.835-1.057,1.692-1.615,2.519c-0.084,0.125-0.398,0.234-0.504,0.173c-0.23-0.137-0.547-0.375-0.561-0.59
c-0.033-0.483,0.053-0.989,0.176-1.464c0.199-0.776,0.496-1.528,0.691-2.306c0.119-0.485-0.365-1.299-0.84-1.481
c-0.504-0.195-1.014-0.122-1.408,0.237c-0.518,0.47-0.971,1.011-1.475,1.497c-0.223,0.213-0.525,0.312-0.74-0.015
c-0.16-0.247-0.355-0.545-0.342-0.812c0.014-0.253,0.242-0.525,0.436-0.735c3.205-3.471,6.412-6.94,9.639-10.392
c0.82-0.88,1.775-1.64,2.559-2.551c1.307-1.521,0.955-3.325-0.854-4.227c-2.566-1.278-2.818-1.1-1.969-4.351
c0.15-0.57,0.125-1.196,0.123-1.796c-0.004-0.532-0.238-0.973-0.77-1.181c-0.541-0.213-1.266-0.008-1.553,0.572
c-0.484,0.982-0.857,2.02-1.285,3.028c-0.074,0.173-0.258,0.474-0.291,0.46c-0.271-0.104-0.562-0.227-0.768-0.426
c-0.451-0.438-0.645-0.942-0.5-1.625c0.379-1.779,1.025-3.462,1.73-5.126c0.359-0.85,0.623-1.686,0.432-2.625
c-0.158-0.771-1.32-1.246-1.918-0.74c-0.227,0.19-0.436,0.417-0.598,0.662c-0.676,1.022-1.096,2.131-1.201,3.37
c-0.041,0.479-0.266,0.943-0.428,1.408c-0.023,0.066-0.162,0.112-0.252,0.127c-0.066,0.011-0.166-0.027-0.207-0.079
c-0.064-0.072-0.115-0.173-0.129-0.268c-0.502-3.262,0.043-6.401,1.135-9.469c0.129-0.366,0.379-0.71,0.643-1.002
c1.662-1.844,3.645-3.104,6.15-3.512c2.447-0.398,4.346,0.426,5.594,2.535c1.367,2.311,1.766,4.881,2.078,7.483
c0.168,1.393,0.34,2.79,0.625,4.162c0.16,0.774,0.475,1.542,0.857,2.239c0.564,1.032,1.598,1.526,2.682,1.779
c0.756,0.177,1.311-0.448,1.826-0.896c2.424-2.112,4.867-4.209,7.205-6.415c1.236-1.165,2.275-2.541,3.4-3.823
c0.396-0.453,0.752-0.947,1.186-1.362c1.488-1.423,1.527-1.402,2.902-0.108c2.268,2.133,4.564,4.211,7.152,5.992
c1.807,1.244,3.404,2.812,5.268,4.01c1.066,0.687,1.879,0.445,2.439-0.72c0.439-0.91,0.832-1.852,0.773-2.884
c-0.07-1.253,0.303-2.365,0.865-3.458c0.318-0.622,0.529-1.301,0.768-1.96c1.508-4.158,5.74-6.598,10.068-5.779
c1.238,0.234,2.225,0.818,2.834,2.01c1.619,3.161,2.035,6.532,1.5,9.965c-0.293,1.882-1.326,3.549-2.627,5.016
c-1.549,1.749-3.465,3.052-5.26,4.501c-0.391,0.314-0.844,0.552-1.223,0.875c-1.734,1.475-1.9,3.962-0.385,5.639
c0.268,0.297,0.568,0.568,0.887,0.813c0.555,0.427,1.186,0.769,1.695,1.242c3.012,2.811,6.096,5.552,8.967,8.502
C101.399,62.033,101.146,61.46,98.106,64.956z M68.372,42.532c-0.393,0.446-0.84,0.888-1.084,1.414
c-1.09,2.364-1.852,4.829-2.078,7.828c0.088,0.416,0.156,1.222,0.438,1.944c0.363,0.936,1.969,1.085,2.516,0.262
c0.324-0.487,0.635-1.049,0.729-1.614c0.441-2.65,0.828-5.309,1.178-7.973c0.061-0.467-0.102-0.981-0.238-1.45
C69.659,42.358,68.747,42.109,68.372,42.532z M67.046,36.866c-0.068-0.331-0.434-0.642-0.738-0.869
c-0.373-0.281-0.771-0.085-1.102,0.164c-0.84,0.635-1.27,1.558-1.598,2.505c-0.562,1.612-1.074,3.242-1.549,4.881
c-0.193,0.664-0.238,1.371-0.344,2.031c0.107,0.538,0.178,1.024,0.311,1.493c0.094,0.348,0.773,0.553,1.012,0.303
c0.338-0.355,0.738-0.717,0.91-1.154c1.029-2.615,2.016-5.246,2.973-7.889C67.087,37.88,67.14,37.329,67.046,36.866z"/>
</svg>
